<svg width="14" height="14" viewBox="0 0 14 14" fill="none" xmlns="http://www.w3.org/2000/svg">
<path fill-rule="evenodd" clip-rule="evenodd" d="M0.333252 7.00004C0.333252 3.31814 3.31802 0.333374 6.99992 0.333374C8.76803 0.333374 10.4637 1.03575 11.714 2.286C12.9642 3.53624 13.6666 5.23193 13.6666 7.00004C13.6666 10.6819 10.6818 13.6667 6.99992 13.6667C3.31802 13.6667 0.333252 10.6819 0.333252 7.00004ZM6.81992 9.40671L9.86658 5.40671V5.38671C10.0119 5.19617 10.0445 4.94259 9.9521 4.72149C9.85973 4.5004 9.65643 4.34538 9.41877 4.31483C9.18111 4.28427 8.94521 4.38283 8.79992 4.57337L6.27992 7.90671L5.19325 6.52004C5.04677 6.33188 4.81104 6.23616 4.57485 6.26893C4.33866 6.30171 4.13789 6.458 4.04818 6.67893C3.95847 6.89987 3.99344 7.15188 4.13992 7.34004L5.76658 9.41337C5.8938 9.57437 6.08806 9.66781 6.29325 9.66671C6.49958 9.66621 6.69406 9.5702 6.81992 9.40671Z" fill="white"/>
</svg>
