<svg width="126" height="53" viewBox="0 0 126 53" fill="none" xmlns="http://www.w3.org/2000/svg">
<g filter="url(#filter0_b_435_4203)">
<rect width="126" height="53" rx="10" fill="#717171" fill-opacity="0.5"/>
<path d="M12.6667 18C12.6667 17.2927 12.9476 16.6145 13.4477 16.1144C13.9478 15.6143 14.6261 15.3333 15.3334 15.3333H36.6667C37.3739 15.3333 38.0522 15.6143 38.5523 16.1144C39.0524 16.6145 39.3334 17.2927 39.3334 18V32.6666C39.3334 33.3739 39.0524 34.0522 38.5523 34.5523C38.0522 35.0524 37.3739 35.3333 36.6667 35.3333H30.552L26.9427 38.9426C26.6926 39.1926 26.3536 39.333 26 39.333C25.6465 39.333 25.3074 39.1926 25.0574 38.9426L21.448 35.3333H15.3334C14.6261 35.3333 13.9478 35.0524 13.4477 34.5523C12.9476 34.0522 12.6667 33.3739 12.6667 32.6666V18ZM36.6667 18H15.3334V32.6666H22C22.3536 32.6667 22.6927 32.8072 22.9427 33.0573L26 36.1146L29.0574 33.0573C29.3073 32.8072 29.6464 32.6667 30 32.6666H36.6667V18ZM18 22.6666C18 22.313 18.1405 21.9739 18.3905 21.7238C18.6406 21.4738 18.9797 21.3333 19.3334 21.3333H32.6667C33.0203 21.3333 33.3594 21.4738 33.6095 21.7238C33.8595 21.9739 34 22.313 34 22.6666C34 23.0203 33.8595 23.3594 33.6095 23.6095C33.3594 23.8595 33.0203 24 32.6667 24H19.3334C18.9797 24 18.6406 23.8595 18.3905 23.6095C18.1405 23.3594 18 23.0203 18 22.6666ZM18 28C18 27.6464 18.1405 27.3072 18.3905 27.0572C18.6406 26.8071 18.9797 26.6666 19.3334 26.6666H27.3334C27.687 26.6666 28.0261 26.8071 28.2762 27.0572C28.5262 27.3072 28.6667 27.6464 28.6667 28C28.6667 28.3536 28.5262 28.6927 28.2762 28.9428C28.0261 29.1928 27.687 29.3333 27.3334 29.3333H19.3334C18.9797 29.3333 18.6406 29.1928 18.3905 28.9428C18.1405 28.6927 18 28.3536 18 28Z" fill="white"/>
<path d="M73.2191 16.756H77.2371V29.09H80.3591V32.52H77.2371V37H73.3031L73.3171 32.52H63.9931V29.16L73.2191 16.756ZM67.7731 29.09H73.3171V21.67L67.7731 29.09ZM84.1819 16.756H97.1879L97.0339 20.102H87.4159L87.0239 24.988C87.7706 24.568 88.4799 24.2647 89.1519 24.078C89.8333 23.8913 90.5799 23.798 91.3919 23.798C92.7453 23.798 93.9539 24.0547 95.0179 24.568C96.0913 25.072 96.9406 25.814 97.5659 26.794C98.1913 27.774 98.5039 28.9687 98.5039 30.378C98.5039 31.806 98.1819 33.038 97.5379 34.074C96.8939 35.11 95.9793 35.908 94.7939 36.468C93.6179 37.028 92.2226 37.308 90.6079 37.308C89.2826 37.308 88.0506 37.1027 86.9119 36.692C85.7733 36.2813 84.7886 35.7213 83.9579 35.012C83.1273 34.2933 82.4973 33.472 82.0679 32.548L85.2599 30.658C85.6239 31.2927 86.0346 31.8667 86.4919 32.38C86.9493 32.884 87.4766 33.2853 88.0739 33.584C88.6806 33.8733 89.3853 34.018 90.1879 34.018C91.4013 34.018 92.3766 33.696 93.1139 33.052C93.8513 32.408 94.2199 31.568 94.2199 30.532C94.2199 29.8787 94.0519 29.2953 93.7159 28.782C93.3893 28.2593 92.9366 27.8487 92.3579 27.55C91.7793 27.2513 91.1026 27.102 90.3279 27.102C89.9173 27.102 89.5253 27.1393 89.1519 27.214C88.7879 27.2793 88.4146 27.41 88.0319 27.606C87.6586 27.7927 87.2433 28.0633 86.7859 28.418C86.6553 28.474 86.5619 28.502 86.5059 28.502C86.4593 28.502 86.3659 28.4693 86.2259 28.404L83.2579 27.032L84.1819 16.756ZM115.466 37H111.392L107.486 30.756L105.568 32.8V37H101.48V16.196H105.568V28.53L110.888 22.524H115.284L110.02 28.292L115.466 37Z" fill="white"/>
</g>
<defs>
<filter id="filter0_b_435_4203" x="-10" y="-10" width="146" height="73" filterUnits="userSpaceOnUse" color-interpolation-filters="sRGB">
<feFlood flood-opacity="0" result="BackgroundImageFix"/>
<feGaussianBlur in="BackgroundImageFix" stdDeviation="5"/>
<feComposite in2="SourceAlpha" operator="in" result="effect1_backgroundBlur_435_4203"/>
<feBlend mode="normal" in="SourceGraphic" in2="effect1_backgroundBlur_435_4203" result="shape"/>
</filter>
</defs>
</svg>
