<svg width="137" height="53" viewBox="0 0 137 53" fill="none" xmlns="http://www.w3.org/2000/svg">
<g filter="url(#filter0_b_435_4199)">
<rect width="137" height="53" rx="10" fill="#717171" fill-opacity="0.5"/>
<path d="M32.25 14C29.6688 14 27.4088 15.11 26 16.9862C24.5912 15.11 22.3313 14 19.75 14C17.6953 14.0023 15.7254 14.8196 14.2725 16.2725C12.8196 17.7254 12.0023 19.6953 12 21.75C12 30.5 24.9738 37.5825 25.5262 37.875C25.6719 37.9533 25.8346 37.9943 26 37.9943C26.1654 37.9943 26.3281 37.9533 26.4737 37.875C27.0262 37.5825 40 30.5 40 21.75C39.9977 19.6953 39.1804 17.7254 37.7275 16.2725C36.2746 14.8196 34.3047 14.0023 32.25 14ZM26 35.85C23.7175 34.52 14 28.4613 14 21.75C14.002 20.2256 14.6084 18.7642 15.6863 17.6863C16.7642 16.6084 18.2256 16.002 19.75 16C22.1812 16 24.2225 17.295 25.075 19.375C25.1503 19.5584 25.2785 19.7153 25.4432 19.8257C25.6079 19.9361 25.8017 19.995 26 19.995C26.1983 19.995 26.3921 19.9361 26.5568 19.8257C26.7215 19.7153 26.8497 19.5584 26.925 19.375C27.7775 17.2912 29.8188 16 32.25 16C33.7744 16.002 35.2358 16.6084 36.3137 17.6863C37.3916 18.7642 37.998 20.2256 38 21.75C38 28.4513 28.28 34.5188 26 35.85Z" fill="white"/>
<path d="M66.8199 37V21.838H63.2079V19.528C64.3652 19.528 65.2986 19.4207 66.0079 19.206C66.7266 18.982 67.2632 18.6647 67.6179 18.254C67.9726 17.834 68.1826 17.3347 68.2479 16.756H70.9639V37H66.8199ZM83.3605 16.476C84.7511 16.476 85.9925 16.6953 87.0845 17.134C88.1858 17.5727 89.0538 18.2167 89.6885 19.066C90.3231 19.906 90.6405 20.942 90.6405 22.174C90.6405 23.21 90.3558 24.092 89.7865 24.82C89.2171 25.548 88.5171 26.108 87.6865 26.5C88.3025 26.6307 88.9045 26.9387 89.4925 27.424C90.0898 27.9 90.5798 28.488 90.9625 29.188C91.3451 29.8787 91.5365 30.6113 91.5365 31.386C91.5365 32.59 91.1958 33.6353 90.5145 34.522C89.8425 35.4087 88.8905 36.0947 87.6585 36.58C86.4358 37.056 85.0031 37.294 83.3605 37.294C81.7365 37.294 80.3131 37.056 79.0905 36.58C77.8678 36.0947 76.9158 35.4087 76.2345 34.522C75.5531 33.6353 75.2125 32.59 75.2125 31.386C75.2125 30.6113 75.4038 29.8787 75.7865 29.188C76.1691 28.488 76.6545 27.9 77.2425 27.424C77.8305 26.9387 78.4371 26.6307 79.0625 26.5C78.2318 26.108 77.5271 25.548 76.9485 24.82C76.3698 24.092 76.0805 23.21 76.0805 22.174C76.0805 20.942 76.3978 19.906 77.0325 19.066C77.6765 18.2167 78.5491 17.5727 79.6505 17.134C80.7518 16.6953 81.9885 16.476 83.3605 16.476ZM83.3605 24.918C84.2938 24.918 85.0591 24.6707 85.6565 24.176C86.2631 23.672 86.5665 22.9767 86.5665 22.09C86.5665 21.2127 86.2631 20.5173 85.6565 20.004C85.0498 19.4907 84.2845 19.234 83.3605 19.234C82.4458 19.234 81.6851 19.4907 81.0785 20.004C80.4718 20.5173 80.1685 21.2127 80.1685 22.09C80.1685 22.9767 80.4718 23.672 81.0785 24.176C81.6851 24.6707 82.4458 24.918 83.3605 24.918ZM83.3605 34.214C84.5551 34.214 85.4885 33.948 86.1605 33.416C86.8418 32.8747 87.1825 32.1607 87.1825 31.274C87.1825 30.6767 87.0285 30.154 86.7205 29.706C86.4125 29.2487 85.9738 28.8893 85.4045 28.628C84.8351 28.3667 84.1538 28.236 83.3605 28.236C82.5858 28.236 81.9138 28.3667 81.3445 28.628C80.7751 28.8893 80.3365 29.2487 80.0285 29.706C79.7205 30.154 79.5665 30.6767 79.5665 31.274C79.5665 32.1607 79.9071 32.8747 80.5885 33.416C81.2698 33.948 82.1938 34.214 83.3605 34.214ZM101.728 16.476C104.136 16.476 106.035 17.3767 107.426 19.178C108.816 20.97 109.512 23.5507 109.512 26.92C109.512 30.2707 108.826 32.842 107.454 34.634C106.082 36.4167 104.173 37.308 101.728 37.308C99.2729 37.308 97.3549 36.4167 95.9736 34.634C94.6016 32.8513 93.9156 30.2847 93.9156 26.934C93.9156 24.694 94.2329 22.7947 94.8676 21.236C95.5023 19.6773 96.4029 18.4967 97.5696 17.694C98.7363 16.882 100.122 16.476 101.728 16.476ZM101.728 33.962C102.932 33.962 103.814 33.4253 104.374 32.352C104.934 31.2693 105.214 29.4633 105.214 26.934C105.214 24.3487 104.929 22.496 104.36 21.376C103.79 20.256 102.908 19.696 101.714 19.696C100.519 19.696 99.6276 20.2607 99.0396 21.39C98.4609 22.5193 98.1716 24.3673 98.1716 26.934C98.1716 29.454 98.4609 31.2553 99.0396 32.338C99.6183 33.4207 100.514 33.962 101.728 33.962ZM126.466 37H122.392L118.486 30.756L116.568 32.8V37H112.48V16.196H116.568V28.53L121.888 22.524H126.284L121.02 28.292L126.466 37Z" fill="white"/>
</g>
<defs>
<filter id="filter0_b_435_4199" x="-10" y="-10" width="157" height="73" filterUnits="userSpaceOnUse" color-interpolation-filters="sRGB">
<feFlood flood-opacity="0" result="BackgroundImageFix"/>
<feGaussianBlur in="BackgroundImageFix" stdDeviation="5"/>
<feComposite in2="SourceAlpha" operator="in" result="effect1_backgroundBlur_435_4199"/>
<feBlend mode="normal" in="SourceGraphic" in2="effect1_backgroundBlur_435_4199" result="shape"/>
</filter>
</defs>
</svg>
