<svg width="46" height="46" viewBox="0 0 46 46" fill="none" xmlns="http://www.w3.org/2000/svg">
<path d="M24.1145 29.2145C27.0375 31.2984 32.0307 31.6375 34.1146 28.7145C36.0015 26.0678 34.7642 22.0798 32.3434 19.8024C31.8444 19.3329 31.236 19.0032 30.6146 18.7145V18.7145" stroke="#8224E3"/>
<path d="M26.4613 27.3676C28.0123 28.4734 30.6618 28.6533 31.7676 27.1023C32.7688 25.6979 32.1123 23.5818 30.8278 22.3733C30.563 22.1242 30.2401 21.9493 29.9104 21.7961V21.7961" stroke="#8224E3"/>
<rect x="23.1145" y="44.7145" width="1" height="1" fill="#8224E3"/>
<path d="M30.4898 13.7668L30.5637 13.2723L30.5296 13.2672L30.495 13.2669L30.4898 13.7668ZM39.3894 25.7156C39.3486 25.9887 39.5369 26.2432 39.81 26.2841C40.0831 26.3249 40.3376 26.1366 40.3784 25.8635L39.3894 25.7156ZM24.7176 15.2038C25.3419 15.0723 25.7251 14.9377 26.0285 14.8077C26.357 14.6669 26.4749 14.591 26.725 14.5082C27.182 14.357 27.9769 14.2406 30.4846 14.2668L30.495 13.2669C28.0027 13.2408 27.0476 13.3482 26.4108 13.5588C26.114 13.657 25.8491 13.7966 25.6345 13.8885C25.3949 13.9913 25.0749 14.1066 24.5116 14.2252L24.7176 15.2038ZM30.4159 14.2614C35.9049 15.0819 40.1678 20.5083 39.3894 25.7156L40.3784 25.8635C41.2463 20.0577 36.5452 14.1665 30.5637 13.2723L30.4159 14.2614Z" fill="#8224E3"/>
<path d="M21.6145 33.2145V30.7145C28.2092 27.5375 30.032 24.4811 30.6145 17.2145H25.1145V14.7145C25.1145 14.7145 24.3571 12.3525 23.1145 12.2145C21.7422 12.062 20.6145 14.7145 20.6145 14.7145V17.2145H16.1148M21.6145 33.2145H16.1145M21.6145 33.2145L21.1145 42.2145C21.1145 42.2145 18.6146 45.2145 16.1145 45.2145C13.6145 45.2145 11.1145 42.2145 11.1145 42.2145V33.2145M16.1148 17.2145H10.6145V19.2145C10.6145 19.2145 9.71232 21.0925 8.6145 21.2145C7.37186 21.3525 6.1145 19.2145 6.1145 19.2145V17.2145H1.08344M16.1148 17.2145V21.7145H18.6145C18.6145 21.7145 20.6145 22.6099 20.6145 23.7145C20.6145 24.819 18.6145 25.7145 18.6145 25.7145H16.1148L16.1145 33.2145M16.1148 17.2145L16.1145 12.2145H13.6145C13.6145 12.2145 11.7365 11.3123 11.6145 10.2145C11.4764 8.97184 13.6145 7.71448 13.6145 7.71448L16.1148 7.7146V2.2146C16.0872 1.51253 8.6145 2.71448 6.11481 5.7146C3.61513 8.71472 1.6145 10.7145 1.11482 16.7146C1.10087 16.882 1.09043 17.0486 1.08344 17.2145M16.1145 33.2145H11.1145M1.08344 17.2145C0.839857 22.9925 4.7819 27.8122 10.6146 31.2145V33.2145H11.1145" stroke="#8224E3" stroke-linecap="round"/>
<rect x="8.6145" y="33.2145" width="15" height="3" rx="1.5" fill="white" stroke="#8224E3"/>
<rect x="8.6145" y="38.2145" width="15" height="3" rx="1.5" fill="white" stroke="#8224E3"/>
<path d="M26.1145 45.2144H31.6145L32.6145 39.7144H40.1145V33.7144H44.6145L40.1145 25.7145" stroke="#8224E3" stroke-linecap="round" stroke-linejoin="round"/>
<path d="M23.1145 1.90156L24.2437 4.3331C24.3894 4.64686 24.687 4.86302 25.0304 4.90464L27.6919 5.2272L25.7283 7.05255C25.4749 7.28808 25.3613 7.63783 25.4278 7.97731L25.9435 10.6082L23.6007 9.30479C23.2984 9.1366 22.9306 9.1366 22.6283 9.30479L20.2855 10.6082L20.8012 7.97731C20.8677 7.63783 20.7541 7.28808 20.5007 7.05255L18.5371 5.2272L21.1986 4.90464C21.5421 4.86302 21.8396 4.64686 21.9853 4.3331L23.1145 1.90156Z" stroke="#8224E3"/>
</svg>
