<svg width="49" height="49" viewBox="0 0 49 49" fill="none" xmlns="http://www.w3.org/2000/svg">
<path d="M10.0208 9.85203C10.0208 8.78097 10.4356 7.75377 11.174 6.99641C11.9124 6.23905 12.914 5.81357 13.9583 5.81357C15.0025 5.81357 16.0041 6.23905 16.7425 6.99641C17.4809 7.75377 17.8958 8.78097 17.8958 9.85203C17.8958 10.9231 17.4809 11.9503 16.7425 12.7077C16.0041 13.465 15.0025 13.8905 13.9583 13.8905C12.914 13.8905 11.9124 13.465 11.174 12.7077C10.4356 11.9503 10.0208 10.9231 10.0208 9.85203ZM13.9583 2.92896C13.0718 2.92896 12.1941 3.10803 11.3751 3.45594C10.5562 3.80386 9.81208 4.31381 9.18528 4.95668C8.55849 5.59954 8.06128 6.36274 7.72206 7.20268C7.38285 8.04263 7.20825 8.94288 7.20825 9.85203C7.20825 10.7612 7.38285 11.6614 7.72206 12.5014C8.06128 13.3413 8.55849 14.1045 9.18528 14.7474C9.81208 15.3903 10.5562 15.9002 11.3751 16.2481C12.1941 16.596 13.0718 16.7751 13.9583 16.7751C15.7485 16.7751 17.4654 16.0457 18.7312 14.7474C19.9971 13.4491 20.7083 11.6881 20.7083 9.85203C20.7083 8.01592 19.9971 6.25501 18.7312 4.95668C17.4654 3.65835 15.7485 2.92896 13.9583 2.92896ZM30.2708 9.85203C30.2708 8.78097 30.6856 7.75377 31.424 6.99641C32.1624 6.23905 33.164 5.81357 34.2083 5.81357C35.2525 5.81357 36.2541 6.23905 36.9925 6.99641C37.7309 7.75377 38.1458 8.78097 38.1458 9.85203C38.1458 10.9231 37.7309 11.9503 36.9925 12.7077C36.2541 13.465 35.2525 13.8905 34.2083 13.8905C33.164 13.8905 32.1624 13.465 31.424 12.7077C30.6856 11.9503 30.2708 10.9231 30.2708 9.85203ZM34.2083 2.92896C33.3218 2.92896 32.4441 3.10803 31.6251 3.45594C30.8062 3.80386 30.0621 4.31381 29.4353 4.95668C28.8085 5.59954 28.3113 6.36274 27.9721 7.20268C27.6328 8.04263 27.4583 8.94288 27.4583 9.85203C27.4583 10.7612 27.6328 11.6614 27.9721 12.5014C28.3113 13.3413 28.8085 14.1045 29.4353 14.7474C30.0621 15.3903 30.8062 15.9002 31.6251 16.2481C32.4441 16.596 33.3218 16.7751 34.2083 16.7751C35.9985 16.7751 37.7154 16.0457 38.9812 14.7474C40.2471 13.4491 40.9583 11.6881 40.9583 9.85203C40.9583 8.01592 40.2471 6.25501 38.9812 4.95668C37.7154 3.65835 35.9985 2.92896 34.2083 2.92896ZM1.58325 23.059C1.58325 22.5368 1.68353 22.0198 1.87835 21.5373C2.07318 21.0549 2.35874 20.6166 2.71873 20.2474C3.07872 19.8782 3.50609 19.5853 3.97643 19.3855C4.44678 19.1856 4.9509 19.0828 5.46 19.0828H16.287C15.7833 19.9775 15.4297 20.9526 15.2408 21.9674H5.46C5.32024 21.9674 5.18185 21.9956 5.05273 22.0505C4.92361 22.1054 4.80629 22.1858 4.70746 22.2871C4.60864 22.3885 4.53025 22.5088 4.47676 22.6412C4.42328 22.7737 4.39575 22.9156 4.39575 23.059V23.554C4.39575 23.8655 4.39913 25.7843 5.54213 27.5982C6.55013 29.1997 8.6055 30.9674 13.0616 31.1774C11.9009 31.7174 10.9324 32.6136 10.2896 33.7424C6.66488 33.0132 4.46213 31.2005 3.17963 29.164C1.58325 26.629 1.58325 24.0097 1.58325 23.5563V23.059ZM35.1049 31.1774C36.2656 31.7174 37.2341 32.6136 37.8769 33.7424C41.5016 33.0132 43.7044 31.2005 44.9869 29.164C46.5833 26.629 46.5833 24.0097 46.5833 23.5563V23.0601C46.5834 22.5379 46.4832 22.0207 46.2885 21.5381C46.0937 21.0556 45.8082 20.6171 45.4482 20.2478C45.0882 19.8785 44.6608 19.5855 44.1903 19.3856C43.7199 19.1857 43.2157 19.0828 42.7065 19.0828H31.8795C32.3745 19.9632 32.7345 20.9347 32.9258 21.9674H42.7065C43.2938 21.9674 43.7708 22.4566 43.7708 23.059V23.554C43.7708 23.8655 43.7674 25.7843 42.6244 27.5982C41.6164 29.1997 39.561 30.9674 35.1049 31.1774ZM24.0833 19.6597C23.039 19.6597 22.0374 20.0852 21.299 20.8426C20.5606 21.5999 20.1458 22.6271 20.1458 23.6982C20.1458 24.7693 20.5606 25.7965 21.299 26.5538C22.0374 27.3112 23.039 27.7366 24.0833 27.7366C25.1275 27.7366 26.1291 27.3112 26.8675 26.5538C27.6059 25.7965 28.0208 24.7693 28.0208 23.6982C28.0208 22.6271 27.6059 21.5999 26.8675 20.8426C26.1291 20.0852 25.1275 19.6597 24.0833 19.6597ZM17.3333 23.6982C17.3333 21.8621 18.0444 20.1012 19.3103 18.8028C20.5762 17.5045 22.293 16.7751 24.0833 16.7751C25.8735 16.7751 27.5904 17.5045 28.8562 18.8028C30.1221 20.1012 30.8333 21.8621 30.8333 23.6982C30.8333 25.5343 30.1221 27.2952 28.8562 28.5935C27.5904 29.8919 25.8735 30.6213 24.0833 30.6213C22.293 30.6213 20.5762 29.8919 19.3103 28.5935C18.0444 27.2952 17.3333 25.5343 17.3333 23.6982ZM11.7083 36.9051C11.7083 35.8506 12.1167 34.8392 12.8437 34.0935C13.5708 33.3479 14.5568 32.929 15.585 32.929H32.5815C33.6097 32.929 34.5957 33.3479 35.3228 34.0935C36.0498 34.8392 36.4583 35.8506 36.4583 36.9051V37.4024C36.4583 37.857 36.4583 40.4751 34.8619 43.0101C33.1935 45.6593 29.9704 47.929 24.0833 47.929C18.1961 47.929 14.973 45.6593 13.3046 43.0101C11.7083 40.4751 11.7083 37.8559 11.7083 37.4024V36.9051ZM15.585 35.8136C15.3027 35.8136 15.032 35.9286 14.8325 36.1333C14.6329 36.338 14.5208 36.6156 14.5208 36.9051V37.4001C14.5208 37.7116 14.5241 39.6305 15.6671 41.4443C16.7404 43.1497 19.0016 45.0443 24.0833 45.0443C29.1649 45.0443 31.4261 43.1497 32.4994 41.4443C33.6424 39.6305 33.6458 37.7116 33.6458 37.4001V36.9051C33.6458 36.6156 33.5336 36.338 33.334 36.1333C33.1345 35.9286 32.8638 35.8136 32.5815 35.8136H15.585Z" fill="#8224E3"/>
</svg>
