<svg width="20" height="21" viewBox="0 0 20 21" fill="none" xmlns="http://www.w3.org/2000/svg">
<path d="M14.6334 18C14.5001 18.0005 14.3687 17.9691 14.25 17.9083L10 15.6833L5.75005 17.9083C5.61204 17.9809 5.45644 18.0133 5.30094 18.0018C5.14544 17.9903 4.99628 17.9355 4.8704 17.8435C4.74453 17.7514 4.647 17.626 4.58889 17.4813C4.53079 17.3366 4.51444 17.1785 4.54171 17.025L5.37505 12.3333L1.94171 8.99997C1.83459 8.89307 1.75861 8.75902 1.7219 8.61221C1.6852 8.4654 1.68917 8.31136 1.73338 8.16663C1.78168 8.01853 1.87053 7.88693 1.98984 7.78676C2.10915 7.6866 2.25415 7.62189 2.40838 7.59997L7.15838 6.9083L9.25005 2.6333C9.31828 2.49241 9.42483 2.37358 9.55747 2.29044C9.69012 2.2073 9.8435 2.16321 10 2.16321C10.1566 2.16321 10.31 2.2073 10.4426 2.29044C10.5753 2.37358 10.6818 2.49241 10.75 2.6333L12.8667 6.89997L17.6167 7.59163C17.7709 7.61355 17.9159 7.67827 18.0353 7.77843C18.1546 7.87859 18.2434 8.01019 18.2917 8.1583C18.3359 8.30303 18.3399 8.45706 18.3032 8.60388C18.2665 8.75069 18.1905 8.88474 18.0834 8.99163L14.65 12.325L15.4834 17.0166C15.5131 17.1729 15.4976 17.3343 15.4385 17.482C15.3794 17.6297 15.2793 17.7573 15.15 17.85C14.9991 17.9557 14.8174 18.0085 14.6334 18Z" fill="#FFAB00"/>
</svg>
