<svg width="20" height="20" viewBox="0 0 20 20" fill="none" xmlns="http://www.w3.org/2000/svg">
<path fill-rule="evenodd" clip-rule="evenodd" d="M13.7933 18.4442C12.5933 18.4001 9.19242 17.9301 5.63075 14.3692C2.06992 10.8076 1.60075 7.40756 1.55575 6.20672C1.48909 4.37672 2.89075 2.59922 4.50992 1.90506C4.7049 1.82086 4.91842 1.78881 5.12953 1.81204C5.34064 1.83527 5.54208 1.91298 5.71409 2.03756C7.04742 3.00922 7.96742 4.47922 8.75742 5.63506C8.93124 5.889 9.00556 6.19801 8.96622 6.50322C8.92687 6.80843 8.77662 7.0885 8.54409 7.29006L6.91825 8.49756C6.8397 8.55428 6.78441 8.63758 6.76265 8.73199C6.74089 8.8264 6.75413 8.92551 6.79992 9.01089C7.16825 9.68006 7.82325 10.6767 8.57325 11.4267C9.32409 12.1767 10.3674 12.8751 11.0833 13.2851C11.173 13.3354 11.2786 13.3495 11.3785 13.3244C11.4783 13.2993 11.5647 13.2369 11.6199 13.1501L12.6783 11.5392C12.8728 11.2808 13.1599 11.1076 13.4792 11.056C13.7986 11.0045 14.1256 11.0785 14.3916 11.2626C15.5641 12.0742 16.9324 12.9784 17.9341 14.2609C18.0688 14.4341 18.1545 14.6404 18.1822 14.8581C18.2099 15.0758 18.1786 15.2969 18.0916 15.4984C17.3941 17.1259 15.6291 18.5117 13.7933 18.4442Z" fill="#637381"/>
</svg>
