<svg width="20" height="20" viewBox="0 0 20 20" fill="none" xmlns="http://www.w3.org/2000/svg">
<path d="M10.0004 12.9177C9.8057 12.9181 9.61701 12.8503 9.46708 12.7261L4.46708 8.55939C4.1127 8.26484 4.06419 7.73878 4.35874 7.38439C4.6533 7.03001 5.17936 6.98151 5.53374 7.27606L10.0004 11.0094L14.4671 7.40939C14.6392 7.26959 14.86 7.20417 15.0806 7.22763C15.3011 7.25109 15.5032 7.36149 15.6421 7.53439C15.7964 7.70761 15.8715 7.93729 15.8493 8.16819C15.8272 8.39909 15.7098 8.61032 15.5254 8.75106L10.5254 12.7761C10.3712 12.8807 10.1863 12.9305 10.0004 12.9177Z" fill="#230E45"/>
</svg>
