<svg width="18" height="16" viewBox="0 0 18 16" fill="none" xmlns="http://www.w3.org/2000/svg">
<path fill-rule="evenodd" clip-rule="evenodd" d="M17.4 14C17.4 14.3182 17.2736 14.6234 17.0486 14.8485C16.8235 15.0735 16.5183 15.2 16.2 15.2H1.80003C1.48177 15.2 1.17654 15.0735 0.951496 14.8485C0.726453 14.6234 0.600025 14.3182 0.600025 14C0.600025 13.6817 0.726453 13.3765 0.951496 13.1514C1.17654 12.9264 1.48177 12.8 1.80003 12.8H16.2C16.5183 12.8 16.8235 12.9264 17.0486 13.1514C17.2736 13.3765 17.4 13.6817 17.4 14ZM17.4 7.99995C17.4 8.31821 17.2736 8.62344 17.0486 8.84848C16.8235 9.07352 16.5183 9.19995 16.2 9.19995H9.00002C8.68177 9.19995 8.37654 9.07352 8.1515 8.84848C7.92645 8.62344 7.80002 8.31821 7.80002 7.99995C7.80002 7.68169 7.92645 7.37647 8.1515 7.15142C8.37654 6.92638 8.68177 6.79995 9.00002 6.79995H16.2C16.5183 6.79995 16.8235 6.92638 17.0486 7.15142C17.2736 7.37647 17.4 7.68169 17.4 7.99995ZM17.4 1.99995C17.4 2.31821 17.2736 2.62344 17.0486 2.84848C16.8235 3.07352 16.5183 3.19995 16.2 3.19995H1.80003C1.48177 3.19995 1.17654 3.07352 0.951496 2.84848C0.726453 2.62344 0.600025 2.31821 0.600025 1.99995C0.600025 1.68169 0.726453 1.37647 0.951496 1.15142C1.17654 0.92638 1.48177 0.799952 1.80003 0.799952H16.2C16.5183 0.799952 16.8235 0.92638 17.0486 1.15142C17.2736 1.37647 17.4 1.68169 17.4 1.99995Z" fill="#F4783C"/>
</svg>
