<?xml version="1.0" encoding="UTF-8"?>
<svg id="Layer_1" data-name="Layer 1" xmlns="http://www.w3.org/2000/svg" viewBox="0 0 199.84 48.19">
  <defs>
    <style>
      .cls-1 {
        fill: #230e45;
      }

      .cls-1, .cls-2 {
        stroke-width: 0px;
      }

      .cls-2 {
        fill: #f4793c;
      }
    </style>
  </defs>
  <g>
    <path class="cls-2" d="M30.13.03c-1.69.25-2.61.52-3.8,1.12-.64.33-.79.36-1.86.42-1.06.06-1.22.09-1.94.43-2.15,1.03-3.3,3.49-2.7,5.79.08.32.15.6.15.62,0,.03-3.12.05-6.93.05h-6.93l-.44.22c-1.06.55-1.06,1.91,0,2.45l.44.23h6.14c6.3,0,6.4,0,6.69.39s.02,1.24-.49,1.53c-.17.09-.93.14-2.75.18l-2.53.05-.31.32c-.25.24-.33.42-.36.8-.06.66.19,1.11.77,1.4.4.21.58.23,2.03.23,1.59,0,1.88.05,2.14.39.19.25.15.76-.08,1.05-.4.51-.63.56-2.61.56-1.01,0-2,.05-2.2.1-1.12.31-1.23,1.93-.18,2.55.31.17.56.2,2.1.23.96,0,1.84.05,1.96.07.11.03.33.17.47.31.37.37.36.83-.02,1.26l-.29.33-7.84.05c-7.34.05-7.86.06-8.11.23-.91.59-.86,1.86.08,2.44.28.17.78.18,8.63.23l8.34.05.29.33c.16.18.29.41.29.52,0,.31-.21.68-.49.87-.24.16-.69.18-4.99.23l-4.74.05-.32.36c-.62.67-.54,1.49.2,2.05l.37.29,5.16.05c3.92.04,5.21.08,5.38.18.58.33.58,1.21,0,1.54-.17.1-1.69.14-6.58.18l-6.35.05-.37.25c-.92.63-.85,1.9.14,2.41.37.18.64.19,6.73.19,5.64,0,6.36.02,6.5.16.4.4.02,1.08-.83,1.48-.45.2-.62.21-5.91.26-6.06.06-5.77.02-6.2.73-.38.62-.17,1.39.53,1.91.28.21.38.21,5.7.24,3.65.02,5.59,0,5.94-.08.77-.16,1.86-.74,2.43-1.3,1.44-1.41,2.06-3.38,1.81-5.78-.24-2.29-.67-4.01-1.76-7.1-.95-2.67-1.09-3.27-1.1-4.64,0-1.22.16-2.11.71-3.93.3-1,1.92-5.7,1.99-5.78,0,0,.29.13.61.32,1.86,1.11,3.17,1.19,3.88.23.27-.37.27-.97,0-1.34-.13-.17-.65-.5-1.35-.85-1.29-.64-1.94-1.23-2.38-2.18-.33-.72-.41-1.91-.16-2.41.28-.55.66-.89,1.19-1.04.84-.25,1.76.06,2.52.87.51.53.78,1.05,1,1.94.13.53.26.77.54,1.06.32.33.44.38.82.38.78,0,1.28-.58,1.28-1.49v-.5l.58-.17c.78-.23,2.45-.23,3.32,0,.36.1,1.23.44,1.94.77.91.41,1.42.59,1.7.59,1.16,0,1.74-1.22,1.3-2.71-.69-2.36-2.93-4.32-5.66-4.98-.8-.2-2.61-.33-3.23-.24ZM32.58,3.13c.38.08.79.23.9.32.2.16.08.17-2.06.17-2.41,0-2.79-.09-1.82-.38,1.01-.31,1.97-.34,2.98-.11Z"/>
    <path class="cls-2" d="M39.72,7.5c-1.05.46-1.05,1.89,0,2.51.99.58,1.01.58,5.21.65,3.88.06,3.9.06,4.57.32.37.14.93.41,1.24.59.59.35,2.02,1.65,1.72,1.55-.09-.03-.92-.2-1.83-.38-1.51-.3-1.68-.31-1.92-.18-.56.32-.51,1,.1,1.6.45.44,2.43,1.01,4.35,1.26.63.08.66.15.6,1.47-.05,1.09-.26,1.64-.88,2.31-.23.25-.69.59-1.03.76-.51.26-.71.3-1.38.3-1.88,0-3.77-1.14-4.53-2.74-.43-.91-.72-1.16-1.36-1.16-.82,0-1.3.57-1.3,1.54,0,.68.21,1.25.72,1.93l.38.52-.42.11c-1.63.41-2.56.87-5.14,2.53-2.09,1.34-2.5,1.55-3.64,1.92-1.79.57-3.39.43-5.32-.46-.84-.39-.93-.41-1.28-.3-.54.16-.9.62-.9,1.13,0,1.05,1.2,2.04,3.17,2.6.65.19,1.02.23,2.27.23h1.48l-.05,2.55c-.07,3.5-.33,4.91-1.26,6.84-1.67,3.46-4.66,5.74-8.63,6.61-.59.12-1.27.17-2.33.18-1.32,0-1.63-.04-2.57-.28-1.32-.34-2.12-.67-3.72-1.51-1.48-.79-1.8-.84-2.32-.32-.28.28-.34.42-.34.75,0,.64.21.93,1.22,1.69,2.43,1.81,5.55,3.08,8.63,3.48,1.6.21,4.38.14,5.79-.15,1.22-.25,2.92-.81,4.04-1.33,3.18-1.46,5.73-4.25,6.91-7.6.56-1.59.75-2.73.74-4.51,0-2.43-.39-4.04-1.58-6.5l-.63-1.32,1.22-.85c2.24-1.57,3.47-2.2,5.01-2.58,1.08-.26,2.62-.25,3.9,0,1.44.3,2.59.27,3.61-.09,4.36-1.51,5.81-6.86,3.03-11.16-1.27-1.95-3.23-3.37-5.5-3.94-.77-.2-1.18-.23-4.74-.28-3.39-.06-3.95-.09-4.27-.24-.44-.2-.63-.21-1.04-.03ZM37.77,32.9c.4,2.57-.22,5.25-1.71,7.45-.79,1.16-2.2,2.47-3.23,2.99-.36.19-.3.11.56-.8,1.11-1.17,1.91-2.31,2.53-3.63.87-1.84,1.23-3.22,1.47-5.74.07-.69.16-1.19.2-1.12s.12.45.18.85Z"/>
    <path class="cls-2" d="M34.98,10.77c-1.04.42-1.57,1.65-1.14,2.67.39.95,1.28,1.41,2.28,1.2.52-.11,1.17-.63,1.4-1.12.18-.39.21-1.11.05-1.53-.35-.94-1.69-1.57-2.59-1.22Z"/>
    <path class="cls-2" d="M3.02,13.54c-.27.12-.72.66-.8.98-.16.63.42,1.54,1.07,1.67.52.1,2.95.07,3.26-.05,1.02-.38,1.29-1.61.52-2.35l-.3-.29-1.77-.02c-.97,0-1.86.02-1.98.06Z"/>
    <path class="cls-2" d="M7.28,18.32c-.23.09-.6.45-.76.75-.61,1.18.88,2.48,2.04,1.78.41-.25.77-.99.67-1.38-.22-.9-1.15-1.44-1.95-1.15Z"/>
    <path class="cls-2" d="M3.05,28.08c-.46.16-.64.3-.83.66-.49.95.47,2.23,1.52,2.03.47-.09,1.01-.56,1.13-1,.29-1.06-.78-2.06-1.82-1.69Z"/>
  </g>
  <g>
    <path class="cls-1" d="M63.78,24.09c0-7.99,4.51-13.03,11.55-13.03,4.63,0,8.34,2.26,9.91,5.98.24.51.37,1.03.37,1.5,0,1.05-.7,1.73-1.75,1.73-.93,0-1.54-.45-1.97-1.47-1.17-2.82-3.65-4.32-6.55-4.32-4.58,0-7.55,3.76-7.55,9.6s2.94,9.62,7.57,9.62c3.08,0,5.43-1.31,6.61-4.04.42-.93.93-1.31,1.78-1.31,1.07,0,1.8.73,1.8,1.77,0,.54-.14,1.05-.42,1.63-1.63,3.41-5.07,5.39-9.75,5.39-7.13,0-11.59-5-11.59-13.05Z"/>
    <path class="cls-1" d="M88.33,31.48c0-3.22,2.48-5.19,6.83-5.44l5.05-.3v-1.42c0-2.05-1.38-3.27-3.69-3.27-1.82,0-3.02.65-4.07,2.33-.38.56-.87.8-1.54.8-.94,0-1.63-.63-1.63-1.57,0-.38.1-.8.33-1.22.96-2.08,3.74-3.41,7.04-3.41,4.46,0,7.3,2.36,7.3,6.05v11.11c0,1.19-.75,1.91-1.82,1.91s-1.77-.68-1.8-1.8v-1.56h-.09c-1.07,2.05-3.41,3.34-5.8,3.34-3.6,0-6.13-2.24-6.13-5.54ZM100.22,29.82v-1.45l-4.54.28c-2.25.16-3.53,1.15-3.53,2.73s1.35,2.66,3.36,2.66c2.64,0,4.72-1.82,4.72-4.22Z"/>
    <path class="cls-1" d="M107.63,35.05v-15.15c0-1.19.73-1.92,1.8-1.92s1.8.72,1.8,1.92v1.5h.09c.82-2.05,2.74-3.41,5.23-3.41s4.4,1.31,5.14,3.6h.09c.94-2.24,3.11-3.6,5.73-3.6,3.63,0,6.01,2.41,6.01,6.07v10.98c0,1.21-.77,1.99-1.9,1.99s-1.89-.79-1.89-1.99v-10.07c0-2.38-1.28-3.74-3.51-3.74s-3.79,1.66-3.79,3.99v9.83c0,1.21-.72,1.99-1.85,1.99s-1.85-.79-1.85-1.99v-10.35c0-2.12-1.35-3.46-3.48-3.46-2.24,0-3.83,1.75-3.83,4.11v9.71c0,1.21-.75,1.99-1.89,1.99s-1.89-.79-1.89-1.99Z"/>
    <path class="cls-1" d="M136.32,27.6c0-5.84,3.32-9.62,8.53-9.62,4.89,0,8.27,3.53,8.27,8.55,0,1.22-.7,1.92-1.87,1.92h-11.11v.09c0,3.36,1.89,5.46,4.89,5.46,2.06,0,3.36-.72,4.75-2.62.4-.47.79-.66,1.33-.66.91,0,1.57.59,1.57,1.54,0,.3-.1.65-.26,1.01-1.21,2.41-3.88,3.8-7.3,3.8-5.54,0-8.79-3.52-8.79-9.46ZM149.34,25.82c-.09-2.89-1.89-4.79-4.51-4.79s-4.49,1.92-4.68,4.79h9.19Z"/>
    <path class="cls-1" d="M156.17,35.05V13.14c0-1.24.79-1.99,1.89-1.99s1.89.75,1.89,1.99v21.92c0,1.24-.79,1.99-1.89,1.99s-1.89-.75-1.89-1.99Z"/>
    <path class="cls-1" d="M163.07,31.48c0-3.22,2.48-5.19,6.83-5.44l5.05-.3v-1.42c0-2.05-1.38-3.27-3.69-3.27-1.82,0-3.02.65-4.07,2.33-.38.56-.87.8-1.54.8-.94,0-1.63-.63-1.63-1.57,0-.38.1-.8.33-1.22.96-2.08,3.74-3.41,7.04-3.41,4.46,0,7.3,2.36,7.3,6.05v11.11c0,1.19-.75,1.91-1.82,1.91s-1.77-.68-1.8-1.8v-1.56h-.09c-1.07,2.05-3.41,3.34-5.8,3.34-3.6,0-6.13-2.24-6.13-5.54ZM174.96,29.82v-1.45l-4.54.28c-2.25.16-3.53,1.15-3.53,2.73s1.35,2.66,3.36,2.66c2.64,0,4.72-1.82,4.72-4.22Z"/>
    <path class="cls-1" d="M182.51,35.16V13.14c0-1.24.79-1.99,1.89-1.99s1.89.75,1.89,1.99v8.31h.09c1.1-2.13,3.22-3.43,5.82-3.43,4.63,0,7.65,3.67,7.65,9.5s-3.01,9.51-7.69,9.51c-2.67,0-4.77-1.31-5.91-3.45h-.07v1.57c0,1.19-.77,1.89-1.87,1.89s-1.8-.7-1.8-1.89ZM195.96,27.51c0-3.87-1.85-6.31-4.82-6.31s-4.88,2.52-4.88,6.31,2.03,6.31,4.88,6.31c2.99,0,4.82-2.41,4.82-6.31Z"/>
  </g>
</svg>