<svg width="20" height="20" viewBox="0 0 20 20" fill="none" xmlns="http://www.w3.org/2000/svg">
<path d="M9.9996 7.08229C10.1943 7.08189 10.383 7.14969 10.5329 7.27389L15.5329 11.4406C15.8873 11.7351 15.9358 12.2612 15.6413 12.6156C15.3467 12.97 14.8206 13.0185 14.4663 12.7239L9.9996 8.99059L5.5329 12.5906C5.3608 12.7304 5.14 12.7958 4.9194 12.7724C4.6989 12.7489 4.4968 12.6385 4.3579 12.4656C4.2036 12.2924 4.1285 12.0627 4.1507 11.8318C4.1728 11.6009 4.2902 11.3897 4.4746 11.2489L9.4746 7.22389C9.6288 7.11929 9.8137 7.06949 9.9996 7.08229Z" fill="#230E45"/>
</svg>
