<svg width="28" height="25" viewBox="0 0 28 25" fill="none" xmlns="http://www.w3.org/2000/svg">
<path d="M0.666748 3.00004C0.666748 2.2928 0.947699 1.61452 1.4478 1.11442C1.94789 0.614325 2.62617 0.333374 3.33341 0.333374H24.6667C25.374 0.333374 26.0523 0.614325 26.5524 1.11442C27.0525 1.61452 27.3334 2.2928 27.3334 3.00004V17.6667C27.3334 18.374 27.0525 19.0522 26.5524 19.5523C26.0523 20.0524 25.374 20.3334 24.6667 20.3334H18.5521L14.9427 23.9427C14.6927 24.1927 14.3536 24.3331 14.0001 24.3331C13.6465 24.3331 13.3075 24.1927 13.0574 23.9427L9.44808 20.3334H3.33341C2.62617 20.3334 1.94789 20.0524 1.4478 19.5523C0.947699 19.0522 0.666748 18.374 0.666748 17.6667V3.00004ZM24.6667 3.00004H3.33341V17.6667H10.0001C10.3537 17.6668 10.6928 17.8073 10.9427 18.0574L14.0001 21.1147L17.0574 18.0574C17.3074 17.8073 17.6465 17.6668 18.0001 17.6667H24.6667V3.00004ZM6.00008 7.66671C6.00008 7.31309 6.14056 6.97395 6.39061 6.7239C6.64065 6.47385 6.97979 6.33337 7.33341 6.33337H20.6667C21.0204 6.33337 21.3595 6.47385 21.6096 6.7239C21.8596 6.97395 22.0001 7.31309 22.0001 7.66671C22.0001 8.02033 21.8596 8.35947 21.6096 8.60952C21.3595 8.85956 21.0204 9.00004 20.6667 9.00004H7.33341C6.97979 9.00004 6.64065 8.85956 6.39061 8.60952C6.14056 8.35947 6.00008 8.02033 6.00008 7.66671ZM6.00008 13C6.00008 12.6464 6.14056 12.3073 6.39061 12.0572C6.64065 11.8072 6.97979 11.6667 7.33341 11.6667H15.3334C15.687 11.6667 16.0262 11.8072 16.2762 12.0572C16.5263 12.3073 16.6667 12.6464 16.6667 13C16.6667 13.3537 16.5263 13.6928 16.2762 13.9429C16.0262 14.1929 15.687 14.3334 15.3334 14.3334H7.33341C6.97979 14.3334 6.64065 14.1929 6.39061 13.9429C6.14056 13.6928 6.00008 13.3537 6.00008 13Z" fill="white"/>
</svg>
