<svg width="60" height="60" viewBox="0 0 60 60" fill="none" xmlns="http://www.w3.org/2000/svg">
<circle cx="40.3284" cy="40.3279" r="19.6721" fill="#F4783C" fill-opacity="0.08"/>
<path d="M32.1445 37.891C33.0173 38.4 33.3082 39.491 32.7991 40.3637L32.6536 40.6546C32.1445 41.4546 31.0536 41.7455 30.1809 41.2364M28.2173 39.9273L29.3082 40.5091C30.1082 41.0182 30.3991 42.1091 29.89 42.9091L29.7445 43.1273C29.2354 43.9273 28.1445 44.1455 27.3445 43.6364L26.3991 43.0546M12.7991 26.6182L14.1082 27.2728C14.4718 27.491 14.9809 27.491 15.3445 27.2728L18.8354 25.4546C19.49 25.091 20.3627 25.1637 21.0173 25.5273L22.3991 26.3273M26.3991 43.1273C27.1991 43.6364 27.49 44.7273 26.9809 45.5273L26.8354 45.7455C26.3264 46.5455 25.2354 46.7637 24.4354 46.2546C24.4354 46.2546 13.0173 38.4728 12.9445 37.891C12.9445 37.891 12.5082 36.8728 12.0718 36.5091L8.14453 33.9637M30.1809 36.7273L33.09 38.4C33.89 38.9091 34.9809 38.691 35.49 37.891L35.6354 37.6728C36.1445 36.8728 35.8536 35.7819 35.0536 35.2728L29.9627 32.1455L26.0354 29.7455M33.2354 4.36368C33.2354 11.4182 29.5264 17.6 23.9991 21.0182C18.4718 17.6 14.7627 11.4182 14.7627 4.36368C16.1445 4.29095 17.5264 4.07277 18.8354 3.70914C20.6536 3.20004 22.3991 2.47277 23.9991 1.45459C25.5991 2.47277 27.3445 3.20004 29.1627 3.70914C30.4718 4.07277 31.8536 4.29095 33.2354 4.36368Z" stroke="#F4783C" stroke-width="1.5" stroke-miterlimit="10" stroke-linecap="round" stroke-linejoin="round"/>
<path d="M2.60156 33.3455L9.72084 22.011L14.0328 24.7193L6.91356 36.0532L2.60156 33.3455Z" stroke="#F4783C" stroke-width="1.5" stroke-miterlimit="10" stroke-linecap="round" stroke-linejoin="round"/>
<path d="M37.8899 24.7274L31.3445 25.7456L27.6354 24.6546C26.0354 24.1456 24.2172 24.5819 22.9808 25.7456L22.2536 26.4001L20.9445 27.6365C20.5081 28.0001 20.2172 28.5092 20.0717 29.0183L18.9081 32.3637C18.6172 33.3092 19.0536 34.2546 19.9263 34.691C20.2899 34.9092 20.7263 34.9092 21.1627 34.8365C21.7445 34.691 22.3263 34.2546 22.5445 33.6728L23.9263 29.9637C24.799 30.0365 25.5263 29.9637 26.1081 29.8183M36.2172 35.7819L40.2172 35.491" stroke="#F4783C" stroke-width="1.5" stroke-miterlimit="10" stroke-linecap="round" stroke-linejoin="round"/>
<path d="M37.6504 23.3855L42.6293 22.3113L45.4526 35.3986L40.4737 36.4727L37.6504 23.3855Z" stroke="#F4783C" stroke-width="1.5" stroke-miterlimit="10" stroke-linecap="round" stroke-linejoin="round"/>
<path d="M21.6719 10.4L22.9082 11.6364L25.8901 8.65454" stroke="#F4783C" stroke-width="1.5" stroke-miterlimit="10" stroke-linecap="round" stroke-linejoin="round"/>
<path d="M28.7992 9.96367C28.7992 12.6546 26.6174 14.7637 23.9992 14.7637C21.381 14.7637 19.1992 12.5819 19.1992 9.96367C19.1992 7.34549 21.3083 5.09094 23.9992 5.09094C26.6901 5.09094 28.7992 7.27276 28.7992 9.96367Z" stroke="#F4783C" stroke-width="1.5" stroke-miterlimit="10" stroke-linecap="round" stroke-linejoin="round"/>
</svg>
